# xmcd
#
# Track frame offsets:
#	182
#	12420
#	31697
#	46212
#	60262
#	74885
#	91072
#	107737
#	123325
#	137072
#	153242
#	170412
#
# Disc length: 2434 seconds
#
# Revision: 1
# Processed by: cddbd v1.5.2PL0 Copyright (c) Steve Scherf et al.
# Submitted via: audiograbber 1.83.01
#
DISCID=9509800c
DTITLE=Georges Hamel - Tant Qu'on Fera Des Chansons
DYEAR=1989
DGENRE=Country
TTITLE0=Tant Qu'on Fera Des Chansons(Denis Champoux-Denis Champoux)
TTITLE1=Danse Avec Moi(Denis Champoux-Denis Champoux)
TTITLE2=Ne Ferme Pas La Porte(Denis Champoux-Denis Champoux)
TTITLE3=Ne Lui Envoie Plus De Roses(Denis Champoux-Denis Champoux)
TTITLE4=Fais Un Sourire à La Vie(Denis Champoux-Denis Champoux)
TTITLE5=Elle Sera Toujours Dans Ma Vie(Denis Champoux-Denis Champoux)
TTITLE6=Dans Le Temps De Mon Père(Denis Champoux-Denis Champoux)
TTITLE7=L'amour Comme Héritage(Denis Champoux-Denis Champoux)
TTITLE8=La Nuit Porte Conseil(Denis Champoux-Denis Champoux)
TTITLE9=Pauvre Chez Les Hommes(Denis Champoux-Denis Champoux)
TTITLE10=Quand Un Enfant Dort(Denis Champoux-Denis Champoux)
TTITLE11=Une Robe Blanche(Denis Champoux-Denis Champoux)
EXTD=
EXTT0=
EXTT1=
EXTT2=
EXTT3=
EXTT4=
EXTT5=
EXTT6=
EXTT7=
EXTT8=
EXTT9=
EXTT10=
EXTT11=
PLAYORDER=
